<mxfile host="app.diagrams.net" modified="2024-02-01T21:55:07.802Z" agent="Mozilla/5.0 (Windows NT 10.0; Win64; x64; rv:122.0) Gecko/20100101 Firefox/122.0" etag="rnhNNenUBKnaifeURe_k" version="23.1.1" type="github">
  <diagram id="C5RBs43oDa-KdzZeNtuy" name="Page-1">
    <mxGraphModel dx="1434" dy="774" grid="1" gridSize="10" guides="1" tooltips="1" connect="1" arrows="1" fold="1" page="1" pageScale="1" pageWidth="1654" pageHeight="2336" math="0" shadow="0">
      <root>
        <mxCell id="WIyWlLk6GJQsqaUBKTNV-0" />
        <mxCell id="WIyWlLk6GJQsqaUBKTNV-1" parent="WIyWlLk6GJQsqaUBKTNV-0" />
        <mxCell id="73mzua4RPxOU6UaDtCoA-16" style="edgeStyle=orthogonalEdgeStyle;rounded=0;orthogonalLoop=1;jettySize=auto;html=1;entryX=0.5;entryY=0;entryDx=0;entryDy=0;" parent="WIyWlLk6GJQsqaUBKTNV-1" source="zkfFHV4jXpPFQw0GAbJ--17" target="73mzua4RPxOU6UaDtCoA-10" edge="1">
          <mxGeometry relative="1" as="geometry" />
        </mxCell>
        <mxCell id="zkfFHV4jXpPFQw0GAbJ--17" value="Система за самолетни билети" style="swimlane;fontStyle=1;align=center;verticalAlign=top;childLayout=stackLayout;horizontal=1;startSize=26;horizontalStack=0;resizeParent=1;resizeLast=0;collapsible=1;marginBottom=0;rounded=0;shadow=0;strokeWidth=1;fontSize=15;" parent="WIyWlLk6GJQsqaUBKTNV-1" vertex="1">
          <mxGeometry x="289" y="40" width="250" height="266" as="geometry">
            <mxRectangle x="550" y="140" width="160" height="26" as="alternateBounds" />
          </mxGeometry>
        </mxCell>
        <mxCell id="73mzua4RPxOU6UaDtCoA-5" style="edgeStyle=orthogonalEdgeStyle;rounded=0;orthogonalLoop=1;jettySize=auto;html=1;exitX=0.5;exitY=1;exitDx=0;exitDy=0;" parent="zkfFHV4jXpPFQw0GAbJ--17" source="73mzua4RPxOU6UaDtCoA-4" target="73mzua4RPxOU6UaDtCoA-4" edge="1">
          <mxGeometry relative="1" as="geometry" />
        </mxCell>
        <mxCell id="73mzua4RPxOU6UaDtCoA-4" value="&lt;div style=&quot;font-size: 15px;&quot; tabindex=&quot;0&quot; id=&quot;tw-target-text-container&quot; class=&quot;tw-ta-container F0azHf tw-nfl&quot;&gt;&lt;pre dir=&quot;ltr&quot; data-ved=&quot;2ahUKEwintonZ_IqEAxWtQ_EDHeQMARUQ3ewLegQIBRAT&quot; style=&quot;text-align:left&quot; id=&quot;tw-target-text&quot; data-placeholder=&quot;Translation&quot; class=&quot;tw-data-text tw-text-large tw-ta&quot;&gt;търсене на полети (филтри)&lt;/pre&gt;&lt;/div&gt;" style="rounded=0;whiteSpace=wrap;html=1;" parent="zkfFHV4jXpPFQw0GAbJ--17" vertex="1">
          <mxGeometry y="26" width="250" height="60" as="geometry" />
        </mxCell>
        <mxCell id="73mzua4RPxOU6UaDtCoA-6" value="&lt;div style=&quot;font-size: 15px;&quot; tabindex=&quot;0&quot; id=&quot;tw-target-text-container&quot; class=&quot;tw-ta-container F0azHf tw-nfl&quot;&gt;&lt;pre dir=&quot;ltr&quot; data-ved=&quot;2ahUKEwintonZ_IqEAxWtQ_EDHeQMARUQ3ewLegQIBRAT&quot; style=&quot;text-align:left&quot; id=&quot;tw-target-text&quot; data-placeholder=&quot;Translation&quot; class=&quot;tw-data-text tw-text-large tw-ta&quot;&gt;резервирайте билет &lt;br&gt;(полет, потребител)&lt;/pre&gt;&lt;/div&gt;" style="rounded=0;whiteSpace=wrap;html=1;" parent="zkfFHV4jXpPFQw0GAbJ--17" vertex="1">
          <mxGeometry y="86" width="250" height="60" as="geometry" />
        </mxCell>
        <mxCell id="73mzua4RPxOU6UaDtCoA-7" value="&lt;div style=&quot;font-size: 15px;&quot; tabindex=&quot;0&quot; id=&quot;tw-target-text-container&quot; class=&quot;tw-ta-container F0azHf tw-nfl&quot;&gt;&lt;pre dir=&quot;ltr&quot; data-ved=&quot;2ahUKEwintonZ_IqEAxWtQ_EDHeQMARUQ3ewLegQIBRAT&quot; style=&quot;text-align:left&quot; id=&quot;tw-target-text&quot; data-placeholder=&quot;Translation&quot; class=&quot;tw-data-text tw-text-large tw-ta&quot;&gt;анулиране на билет (билет)&lt;/pre&gt;&lt;/div&gt;" style="rounded=0;whiteSpace=wrap;html=1;" parent="zkfFHV4jXpPFQw0GAbJ--17" vertex="1">
          <mxGeometry y="146" width="250" height="60" as="geometry" />
        </mxCell>
        <mxCell id="73mzua4RPxOU6UaDtCoA-8" value="&lt;div style=&quot;font-size: 15px;&quot; tabindex=&quot;0&quot; id=&quot;tw-target-text-container&quot; class=&quot;tw-ta-container F0azHf tw-nfl&quot;&gt;&lt;pre dir=&quot;ltr&quot; data-ved=&quot;2ahUKEwintonZ_IqEAxWtQ_EDHeQMARUQ3ewLegQIBRAT&quot; style=&quot;&quot; id=&quot;tw-target-text&quot; data-placeholder=&quot;Translation&quot; class=&quot;tw-data-text tw-text-large tw-ta&quot;&gt;генериране на билет&lt;br&gt;PDF (билет)&lt;/pre&gt;&lt;/div&gt;" style="rounded=0;whiteSpace=wrap;html=1;" parent="zkfFHV4jXpPFQw0GAbJ--17" vertex="1">
          <mxGeometry y="206" width="250" height="60" as="geometry" />
        </mxCell>
        <mxCell id="73mzua4RPxOU6UaDtCoA-10" value="Полет" style="swimlane;fontStyle=1;align=center;verticalAlign=top;childLayout=stackLayout;horizontal=1;startSize=26;horizontalStack=0;resizeParent=1;resizeLast=0;collapsible=1;marginBottom=0;rounded=0;shadow=0;strokeWidth=1;fontSize=15;" parent="WIyWlLk6GJQsqaUBKTNV-1" vertex="1">
          <mxGeometry x="289" y="370" width="250" height="266" as="geometry">
            <mxRectangle x="550" y="140" width="160" height="26" as="alternateBounds" />
          </mxGeometry>
        </mxCell>
        <mxCell id="73mzua4RPxOU6UaDtCoA-11" style="edgeStyle=orthogonalEdgeStyle;rounded=0;orthogonalLoop=1;jettySize=auto;html=1;exitX=0.5;exitY=1;exitDx=0;exitDy=0;" parent="73mzua4RPxOU6UaDtCoA-10" source="73mzua4RPxOU6UaDtCoA-12" target="73mzua4RPxOU6UaDtCoA-12" edge="1">
          <mxGeometry relative="1" as="geometry" />
        </mxCell>
        <mxCell id="73mzua4RPxOU6UaDtCoA-12" value="&lt;div style=&quot;font-size: 15px;&quot; tabindex=&quot;0&quot; id=&quot;tw-target-text-container&quot; class=&quot;tw-ta-container F0azHf tw-nfl&quot;&gt;&lt;pre dir=&quot;ltr&quot; data-ved=&quot;2ahUKEwintonZ_IqEAxWtQ_EDHeQMARUQ3ewLegQIBRAT&quot; style=&quot;text-align:left&quot; id=&quot;tw-target-text&quot; data-placeholder=&quot;Translation&quot; class=&quot;tw-data-text tw-text-large tw-ta&quot;&gt;номер на полета&lt;/pre&gt;&lt;/div&gt;" style="rounded=0;whiteSpace=wrap;html=1;" parent="73mzua4RPxOU6UaDtCoA-10" vertex="1">
          <mxGeometry y="26" width="250" height="60" as="geometry" />
        </mxCell>
        <mxCell id="73mzua4RPxOU6UaDtCoA-13" value="&lt;div style=&quot;font-size: 15px;&quot; tabindex=&quot;0&quot; id=&quot;tw-target-text-container&quot; class=&quot;tw-ta-container F0azHf tw-nfl&quot;&gt;&lt;pre dir=&quot;ltr&quot; data-ved=&quot;2ahUKEwintonZ_IqEAxWtQ_EDHeQMARUQ3ewLegQIBRAT&quot; style=&quot;text-align:left&quot; id=&quot;tw-target-text&quot; data-placeholder=&quot;Translation&quot; class=&quot;tw-data-text tw-text-large tw-ta&quot;&gt;Летище на излитане&lt;/pre&gt;&lt;/div&gt;" style="rounded=0;whiteSpace=wrap;html=1;" parent="73mzua4RPxOU6UaDtCoA-10" vertex="1">
          <mxGeometry y="86" width="250" height="60" as="geometry" />
        </mxCell>
        <mxCell id="73mzua4RPxOU6UaDtCoA-14" value="&lt;div style=&quot;font-size: 15px;&quot; tabindex=&quot;0&quot; id=&quot;tw-target-text-container&quot; class=&quot;tw-ta-container F0azHf tw-nfl&quot;&gt;&lt;pre dir=&quot;ltr&quot; data-ved=&quot;2ahUKEwintonZ_IqEAxWtQ_EDHeQMARUQ3ewLegQIBRAT&quot; style=&quot;text-align:left&quot; id=&quot;tw-target-text&quot; data-placeholder=&quot;Translation&quot; class=&quot;tw-data-text tw-text-large tw-ta&quot;&gt;&lt;span data-ved=&quot;2ahUKEwintonZ_IqEAxWtQ_EDHeQMARUQxZgCegQIBRAS&quot; tabindex=&quot;0&quot; role=&quot;button&quot; aria-label=&quot;Clear source text&quot; id=&quot;tw-cst&quot; style=&quot;&quot; class=&quot;tw-menu-btn KTDgic&quot;&gt;&lt;/span&gt;&lt;/pre&gt;&lt;div class=&quot;QmZWSe&quot;&gt;&lt;div class=&quot;DHcWmd&quot;&gt;&lt;/div&gt;&lt;/div&gt;&lt;span lang=&quot;bg&quot; class=&quot;Y2IQFc&quot;&gt;дестинация летище&lt;/span&gt;&lt;/div&gt;" style="rounded=0;whiteSpace=wrap;html=1;" parent="73mzua4RPxOU6UaDtCoA-10" vertex="1">
          <mxGeometry y="146" width="250" height="60" as="geometry" />
        </mxCell>
        <mxCell id="73mzua4RPxOU6UaDtCoA-15" value="&lt;div style=&quot;font-size: 15px;&quot; tabindex=&quot;0&quot; id=&quot;tw-target-text-container&quot; class=&quot;tw-ta-container F0azHf tw-nfl&quot;&gt;&lt;pre dir=&quot;ltr&quot; data-ved=&quot;2ahUKEwintonZ_IqEAxWtQ_EDHeQMARUQ3ewLegQIBRAT&quot; style=&quot;text-align:left&quot; id=&quot;tw-target-text&quot; data-placeholder=&quot;Translation&quot; class=&quot;tw-data-text tw-text-large tw-ta&quot;&gt;дата и час на заминаване&lt;/pre&gt;&lt;/div&gt;" style="rounded=0;whiteSpace=wrap;html=1;" parent="73mzua4RPxOU6UaDtCoA-10" vertex="1">
          <mxGeometry y="206" width="250" height="60" as="geometry" />
        </mxCell>
        <mxCell id="73mzua4RPxOU6UaDtCoA-17" value="&lt;div style=&quot;font-size: 15px;&quot; tabindex=&quot;0&quot; id=&quot;tw-target-text-container&quot; class=&quot;tw-ta-container F0azHf tw-nfl&quot;&gt;&lt;pre dir=&quot;ltr&quot; data-ved=&quot;2ahUKEwintonZ_IqEAxWtQ_EDHeQMARUQ3ewLegQIBRAT&quot; style=&quot;text-align:left&quot; id=&quot;tw-target-text&quot; data-placeholder=&quot;Translation&quot; class=&quot;tw-data-text tw-text-large tw-ta&quot;&gt;дата и час на заминаване&lt;/pre&gt;&lt;/div&gt;" style="rounded=0;whiteSpace=wrap;html=1;" parent="WIyWlLk6GJQsqaUBKTNV-1" vertex="1">
          <mxGeometry x="289" y="636" width="250" height="60" as="geometry" />
        </mxCell>
        <mxCell id="73mzua4RPxOU6UaDtCoA-18" value="&lt;div style=&quot;font-size: 15px;&quot; tabindex=&quot;0&quot; id=&quot;tw-target-text-container&quot; class=&quot;tw-ta-container F0azHf tw-nfl&quot;&gt;&lt;div tabindex=&quot;0&quot; id=&quot;tw-target-text-container&quot; class=&quot;tw-ta-container F0azHf tw-nfl&quot;&gt;&lt;div tabindex=&quot;0&quot; id=&quot;tw-target-text-container&quot; class=&quot;tw-ta-container F0azHf tw-nfl&quot;&gt;&lt;div tabindex=&quot;0&quot; id=&quot;tw-target-text-container&quot; class=&quot;tw-ta-container F0azHf tw-nfl&quot;&gt;&lt;pre dir=&quot;ltr&quot; data-ved=&quot;2ahUKEwintonZ_IqEAxWtQ_EDHeQMARUQ3ewLegQIBRAT&quot; style=&quot;text-align:left&quot; id=&quot;tw-target-text&quot; data-placeholder=&quot;Translation&quot; class=&quot;tw-data-text tw-text-large tw-ta&quot;&gt;цена на билет&lt;/pre&gt;&lt;/div&gt;&lt;pre dir=&quot;ltr&quot; data-ved=&quot;2ahUKEwintonZ_IqEAxWtQ_EDHeQMARUQ3ewLegQIBRAT&quot; style=&quot;text-align:left&quot; id=&quot;tw-target-text&quot; data-placeholder=&quot;Translation&quot; class=&quot;tw-data-text tw-text-large tw-ta&quot;&gt;&lt;/pre&gt;&lt;/div&gt;&lt;pre dir=&quot;ltr&quot; data-ved=&quot;2ahUKEwintonZ_IqEAxWtQ_EDHeQMARUQ3ewLegQIBRAT&quot; style=&quot;text-align:left&quot; id=&quot;tw-target-text&quot; data-placeholder=&quot;Translation&quot; class=&quot;tw-data-text tw-text-large tw-ta&quot;&gt;&lt;/pre&gt;&lt;/div&gt;&lt;pre dir=&quot;ltr&quot; data-ved=&quot;2ahUKEwintonZ_IqEAxWtQ_EDHeQMARUQ3ewLegQIBRAT&quot; style=&quot;text-align:left&quot; id=&quot;tw-target-text&quot; data-placeholder=&quot;Translation&quot; class=&quot;tw-data-text tw-text-large tw-ta&quot;&gt;&lt;/pre&gt;&lt;/div&gt;" style="rounded=0;whiteSpace=wrap;html=1;" parent="WIyWlLk6GJQsqaUBKTNV-1" vertex="1">
          <mxGeometry x="289" y="690" width="250" height="60" as="geometry" />
        </mxCell>
        <mxCell id="73mzua4RPxOU6UaDtCoA-32" style="edgeStyle=orthogonalEdgeStyle;rounded=0;orthogonalLoop=1;jettySize=auto;html=1;entryX=0.5;entryY=0;entryDx=0;entryDy=0;" parent="WIyWlLk6GJQsqaUBKTNV-1" source="73mzua4RPxOU6UaDtCoA-21" target="73mzua4RPxOU6UaDtCoA-22" edge="1">
          <mxGeometry relative="1" as="geometry" />
        </mxCell>
        <mxCell id="73mzua4RPxOU6UaDtCoA-21" value="&lt;div tabindex=&quot;0&quot; id=&quot;tw-target-text-container&quot; class=&quot;tw-ta-container F0azHf tw-nfl&quot;&gt;&lt;pre dir=&quot;ltr&quot; data-ved=&quot;2ahUKEwintonZ_IqEAxWtQ_EDHeQMARUQ3ewLegQIBRAT&quot; style=&quot;text-align:left&quot; id=&quot;tw-target-text&quot; data-placeholder=&quot;Translation&quot; class=&quot;tw-data-text tw-text-large tw-ta&quot;&gt;Провери наличността&lt;/pre&gt;&lt;/div&gt;" style="rounded=1;whiteSpace=wrap;html=1;" parent="WIyWlLk6GJQsqaUBKTNV-1" vertex="1">
          <mxGeometry x="289" y="740" width="251" height="60" as="geometry" />
        </mxCell>
        <mxCell id="73mzua4RPxOU6UaDtCoA-22" value="Билет" style="swimlane;fontStyle=1;align=center;verticalAlign=top;childLayout=stackLayout;horizontal=1;startSize=26;horizontalStack=0;resizeParent=1;resizeLast=0;collapsible=1;marginBottom=0;rounded=0;shadow=0;strokeWidth=1;fontSize=15;" parent="WIyWlLk6GJQsqaUBKTNV-1" vertex="1">
          <mxGeometry x="289.5" y="860" width="250" height="266" as="geometry">
            <mxRectangle x="550" y="140" width="160" height="26" as="alternateBounds" />
          </mxGeometry>
        </mxCell>
        <mxCell id="73mzua4RPxOU6UaDtCoA-23" style="edgeStyle=orthogonalEdgeStyle;rounded=0;orthogonalLoop=1;jettySize=auto;html=1;exitX=0.5;exitY=1;exitDx=0;exitDy=0;" parent="73mzua4RPxOU6UaDtCoA-22" source="73mzua4RPxOU6UaDtCoA-24" target="73mzua4RPxOU6UaDtCoA-24" edge="1">
          <mxGeometry relative="1" as="geometry" />
        </mxCell>
        <mxCell id="73mzua4RPxOU6UaDtCoA-24" value="&lt;div style=&quot;font-size: 15px;&quot; tabindex=&quot;0&quot; id=&quot;tw-target-text-container&quot; class=&quot;tw-ta-container F0azHf tw-nfl&quot;&gt;&lt;pre dir=&quot;ltr&quot; data-ved=&quot;2ahUKEwintonZ_IqEAxWtQ_EDHeQMARUQ3ewLegQIBRAT&quot; style=&quot;text-align:left&quot; id=&quot;tw-target-text&quot; data-placeholder=&quot;Translation&quot; class=&quot;tw-data-text tw-text-large tw-ta&quot;&gt;номер на билет&lt;/pre&gt;&lt;/div&gt;" style="rounded=0;whiteSpace=wrap;html=1;" parent="73mzua4RPxOU6UaDtCoA-22" vertex="1">
          <mxGeometry y="26" width="250" height="60" as="geometry" />
        </mxCell>
        <mxCell id="73mzua4RPxOU6UaDtCoA-25" value="&lt;div style=&quot;font-size: 15px;&quot; tabindex=&quot;0&quot; id=&quot;tw-target-text-container&quot; class=&quot;tw-ta-container F0azHf tw-nfl&quot;&gt;&lt;div tabindex=&quot;0&quot; id=&quot;tw-target-text-container&quot; class=&quot;tw-ta-container F0azHf tw-nfl&quot;&gt;&lt;pre dir=&quot;ltr&quot; data-ved=&quot;2ahUKEwintonZ_IqEAxWtQ_EDHeQMARUQ3ewLegQIBRAT&quot; style=&quot;text-align:left&quot; id=&quot;tw-target-text&quot; data-placeholder=&quot;Translation&quot; class=&quot;tw-data-text tw-text-large tw-ta&quot;&gt;име на пътник&lt;/pre&gt;&lt;/div&gt;&lt;pre dir=&quot;ltr&quot; data-ved=&quot;2ahUKEwintonZ_IqEAxWtQ_EDHeQMARUQ3ewLegQIBRAT&quot; style=&quot;text-align:left&quot; id=&quot;tw-target-text&quot; data-placeholder=&quot;Translation&quot; class=&quot;tw-data-text tw-text-large tw-ta&quot;&gt;&lt;/pre&gt;&lt;/div&gt;" style="rounded=0;whiteSpace=wrap;html=1;" parent="73mzua4RPxOU6UaDtCoA-22" vertex="1">
          <mxGeometry y="86" width="250" height="60" as="geometry" />
        </mxCell>
        <mxCell id="73mzua4RPxOU6UaDtCoA-26" value="&lt;div style=&quot;font-size: 15px;&quot; tabindex=&quot;0&quot; id=&quot;tw-target-text-container&quot; class=&quot;tw-ta-container F0azHf tw-nfl&quot;&gt;&lt;pre dir=&quot;ltr&quot; data-ved=&quot;2ahUKEwintonZ_IqEAxWtQ_EDHeQMARUQ3ewLegQIBRAT&quot; style=&quot;text-align:left&quot; id=&quot;tw-target-text&quot; data-placeholder=&quot;Translation&quot; class=&quot;tw-data-text tw-text-large tw-ta&quot;&gt;&lt;span data-ved=&quot;2ahUKEwintonZ_IqEAxWtQ_EDHeQMARUQxZgCegQIBRAS&quot; tabindex=&quot;0&quot; role=&quot;button&quot; aria-label=&quot;Clear source text&quot; id=&quot;tw-cst&quot; style=&quot;&quot; class=&quot;tw-menu-btn KTDgic&quot;&gt;&lt;/span&gt;&lt;/pre&gt;&lt;div class=&quot;QmZWSe&quot;&gt;&lt;div class=&quot;DHcWmd&quot;&gt;&lt;/div&gt;&lt;/div&gt;&lt;div tabindex=&quot;0&quot; id=&quot;tw-target-text-container&quot; class=&quot;tw-ta-container F0azHf tw-nfl&quot;&gt;&lt;pre dir=&quot;ltr&quot; data-ved=&quot;2ahUKEwintonZ_IqEAxWtQ_EDHeQMARUQ3ewLegQIBRAT&quot; style=&quot;text-align:left&quot; id=&quot;tw-target-text&quot; data-placeholder=&quot;Translation&quot; class=&quot;tw-data-text tw-text-large tw-ta&quot;&gt;номер на седалката&lt;/pre&gt;&lt;/div&gt;&lt;/div&gt;" style="rounded=0;whiteSpace=wrap;html=1;" parent="73mzua4RPxOU6UaDtCoA-22" vertex="1">
          <mxGeometry y="146" width="250" height="60" as="geometry" />
        </mxCell>
        <mxCell id="73mzua4RPxOU6UaDtCoA-27" value="&lt;div style=&quot;font-size: 15px;&quot; tabindex=&quot;0&quot; id=&quot;tw-target-text-container&quot; class=&quot;tw-ta-container F0azHf tw-nfl&quot;&gt;&lt;pre dir=&quot;ltr&quot; data-ved=&quot;2ahUKEwintonZ_IqEAxWtQ_EDHeQMARUQ3ewLegQIBRAT&quot; style=&quot;text-align:left&quot; id=&quot;tw-target-text&quot; data-placeholder=&quot;Translation&quot; class=&quot;tw-data-text tw-text-large tw-ta&quot;&gt;статус&lt;/pre&gt;&lt;/div&gt;" style="rounded=0;whiteSpace=wrap;html=1;" parent="73mzua4RPxOU6UaDtCoA-22" vertex="1">
          <mxGeometry y="206" width="250" height="60" as="geometry" />
        </mxCell>
        <mxCell id="73mzua4RPxOU6UaDtCoA-33" value="цена" style="rounded=0;whiteSpace=wrap;html=1;" parent="WIyWlLk6GJQsqaUBKTNV-1" vertex="1">
          <mxGeometry x="290" y="1126" width="250" height="60" as="geometry" />
        </mxCell>
        <mxCell id="73mzua4RPxOU6UaDtCoA-34" value="&lt;div tabindex=&quot;0&quot; id=&quot;tw-target-text-container&quot; class=&quot;tw-ta-container F0azHf tw-nfl&quot;&gt;&lt;pre dir=&quot;ltr&quot; data-ved=&quot;2ahUKEwintonZ_IqEAxWtQ_EDHeQMARUQ3ewLegQIBRAT&quot; style=&quot;text-align:left&quot; id=&quot;tw-target-text&quot; data-placeholder=&quot;Translation&quot; class=&quot;tw-data-text tw-text-large tw-ta&quot;&gt;Провери статус&lt;/pre&gt;&lt;/div&gt;" style="rounded=1;whiteSpace=wrap;html=1;" parent="WIyWlLk6GJQsqaUBKTNV-1" vertex="1">
          <mxGeometry x="289.5" y="1186" width="251" height="60" as="geometry" />
        </mxCell>
        <mxCell id="73mzua4RPxOU6UaDtCoA-43" style="edgeStyle=orthogonalEdgeStyle;rounded=0;orthogonalLoop=1;jettySize=auto;html=1;entryX=0.5;entryY=0;entryDx=0;entryDy=0;" parent="WIyWlLk6GJQsqaUBKTNV-1" source="73mzua4RPxOU6UaDtCoA-35" target="73mzua4RPxOU6UaDtCoA-36" edge="1">
          <mxGeometry relative="1" as="geometry" />
        </mxCell>
        <mxCell id="73mzua4RPxOU6UaDtCoA-35" value="Провери цена" style="rounded=1;whiteSpace=wrap;html=1;" parent="WIyWlLk6GJQsqaUBKTNV-1" vertex="1">
          <mxGeometry x="290" y="1246" width="251" height="60" as="geometry" />
        </mxCell>
        <mxCell id="73mzua4RPxOU6UaDtCoA-36" value="Статус на билет" style="swimlane;fontStyle=1;align=center;verticalAlign=top;childLayout=stackLayout;horizontal=1;startSize=26;horizontalStack=0;resizeParent=1;resizeLast=0;collapsible=1;marginBottom=0;rounded=0;shadow=0;strokeWidth=1;fontSize=15;" parent="WIyWlLk6GJQsqaUBKTNV-1" vertex="1">
          <mxGeometry x="291" y="1390" width="250" height="210" as="geometry">
            <mxRectangle x="550" y="140" width="160" height="26" as="alternateBounds" />
          </mxGeometry>
        </mxCell>
        <mxCell id="73mzua4RPxOU6UaDtCoA-37" style="edgeStyle=orthogonalEdgeStyle;rounded=0;orthogonalLoop=1;jettySize=auto;html=1;exitX=0.5;exitY=1;exitDx=0;exitDy=0;" parent="73mzua4RPxOU6UaDtCoA-36" source="73mzua4RPxOU6UaDtCoA-38" target="73mzua4RPxOU6UaDtCoA-38" edge="1">
          <mxGeometry relative="1" as="geometry" />
        </mxCell>
        <mxCell id="73mzua4RPxOU6UaDtCoA-38" value="&lt;div style=&quot;font-size: 15px;&quot; tabindex=&quot;0&quot; id=&quot;tw-target-text-container&quot; class=&quot;tw-ta-container F0azHf tw-nfl&quot;&gt;&lt;pre dir=&quot;ltr&quot; data-ved=&quot;2ahUKEwintonZ_IqEAxWtQ_EDHeQMARUQ3ewLegQIBRAT&quot; style=&quot;text-align:left&quot; id=&quot;tw-target-text&quot; data-placeholder=&quot;Translation&quot; class=&quot;tw-data-text tw-text-large tw-ta&quot;&gt;РЕЗЕРВИРАН &lt;/pre&gt;&lt;/div&gt;" style="rounded=0;whiteSpace=wrap;html=1;" parent="73mzua4RPxOU6UaDtCoA-36" vertex="1">
          <mxGeometry y="26" width="250" height="60" as="geometry" />
        </mxCell>
        <mxCell id="73mzua4RPxOU6UaDtCoA-39" value="&lt;div style=&quot;font-size: 15px;&quot; tabindex=&quot;0&quot; id=&quot;tw-target-text-container&quot; class=&quot;tw-ta-container F0azHf tw-nfl&quot;&gt;&lt;div tabindex=&quot;0&quot; id=&quot;tw-target-text-container&quot; class=&quot;tw-ta-container F0azHf tw-nfl&quot;&gt;&lt;pre dir=&quot;ltr&quot; data-ved=&quot;2ahUKEwintonZ_IqEAxWtQ_EDHeQMARUQ3ewLegQIBRAT&quot; style=&quot;text-align:left&quot; id=&quot;tw-target-text&quot; data-placeholder=&quot;Translation&quot; class=&quot;tw-data-text tw-text-large tw-ta&quot;&gt;ПОТВЪРДЕН &lt;/pre&gt;&lt;/div&gt;&lt;pre dir=&quot;ltr&quot; data-ved=&quot;2ahUKEwintonZ_IqEAxWtQ_EDHeQMARUQ3ewLegQIBRAT&quot; style=&quot;text-align:left&quot; id=&quot;tw-target-text&quot; data-placeholder=&quot;Translation&quot; class=&quot;tw-data-text tw-text-large tw-ta&quot;&gt;&lt;/pre&gt;&lt;/div&gt;" style="rounded=0;whiteSpace=wrap;html=1;" parent="73mzua4RPxOU6UaDtCoA-36" vertex="1">
          <mxGeometry y="86" width="250" height="60" as="geometry" />
        </mxCell>
        <mxCell id="73mzua4RPxOU6UaDtCoA-40" value="&lt;div style=&quot;font-size: 15px;&quot; tabindex=&quot;0&quot; id=&quot;tw-target-text-container&quot; class=&quot;tw-ta-container F0azHf tw-nfl&quot;&gt;&lt;pre dir=&quot;ltr&quot; data-ved=&quot;2ahUKEwintonZ_IqEAxWtQ_EDHeQMARUQ3ewLegQIBRAT&quot; style=&quot;text-align:left&quot; id=&quot;tw-target-text&quot; data-placeholder=&quot;Translation&quot; class=&quot;tw-data-text tw-text-large tw-ta&quot;&gt;&lt;span data-ved=&quot;2ahUKEwintonZ_IqEAxWtQ_EDHeQMARUQxZgCegQIBRAS&quot; tabindex=&quot;0&quot; role=&quot;button&quot; aria-label=&quot;Clear source text&quot; id=&quot;tw-cst&quot; style=&quot;&quot; class=&quot;tw-menu-btn KTDgic&quot;&gt;&lt;/span&gt;&lt;/pre&gt;&lt;div class=&quot;QmZWSe&quot;&gt;&lt;div class=&quot;DHcWmd&quot;&gt;&lt;/div&gt;&lt;/div&gt;&lt;div tabindex=&quot;0&quot; id=&quot;tw-target-text-container&quot; class=&quot;tw-ta-container F0azHf tw-nfl&quot;&gt;&lt;pre dir=&quot;ltr&quot; data-ved=&quot;2ahUKEwintonZ_IqEAxWtQ_EDHeQMARUQ3ewLegQIBRAT&quot; style=&quot;text-align:left&quot; id=&quot;tw-target-text&quot; data-placeholder=&quot;Translation&quot; class=&quot;tw-data-text tw-text-large tw-ta&quot;&gt;АНУЛИРАН&lt;br&gt;&lt;/pre&gt;&lt;/div&gt;&lt;/div&gt;" style="rounded=0;whiteSpace=wrap;html=1;" parent="73mzua4RPxOU6UaDtCoA-36" vertex="1">
          <mxGeometry y="146" width="250" height="60" as="geometry" />
        </mxCell>
      </root>
    </mxGraphModel>
  </diagram>
</mxfile>
